<svg xmlns="http://www.w3.org/2000/svg" width="839" height="151" viewBox="0 0 839 151" version="1.1"><path d="M 73.540 32.750 C 47.162 32.898, 25.243 33.357, 24.831 33.769 C 24.419 34.181, 45.240 46.388, 71.100 60.897 C 113.458 84.661, 118.334 87.155, 120.309 86.066 C 121.514 85.401, 130.150 80.041, 139.500 74.155 C 159.068 61.836, 158.030 63.770, 152.988 49.037 C 151.395 44.383, 150.238 40.429, 150.416 40.250 C 150.925 39.742, 155.782 53.322, 156.543 57.379 C 156.919 59.383, 157.625 61.268, 158.111 61.569 C 158.598 61.869, 169.183 55.775, 181.633 48.027 C 194.084 40.278, 204.434 34.100, 204.632 34.299 C 204.831 34.497, 194.649 41.072, 182.006 48.910 C 169.364 56.747, 158.842 63.461, 158.626 63.830 C 158.409 64.198, 158.618 67.200, 159.090 70.500 C 159.562 73.800, 160.297 79.598, 160.724 83.385 L 161.500 90.269 169.500 80.035 C 173.900 74.406, 177.972 69.283, 178.549 68.651 C 183.221 63.527, 204.974 35.972, 205.205 34.884 C 205.367 34.123, 205.950 33.169, 206.500 32.765 C 207.050 32.361, 193.876 32.024, 177.224 32.015 L 146.949 32 148.474 34.950 C 149.313 36.573, 149.980 38.261, 149.956 38.700 C 149.931 39.140, 149.021 37.813, 147.932 35.750 L 145.952 32 133.726 32.240 C 127.002 32.372, 99.918 32.602, 73.540 32.750 M 137.500 76.514 C 125.947 83.785, 119.416 88.498, 119.266 89.671 C 119.137 90.677, 120.041 101.796, 121.275 114.379 L 123.518 137.259 141.897 114.464 L 160.276 91.669 159.131 79.228 C 158.006 67.005, 157.570 64.908, 156.191 65.093 C 155.811 65.144, 147.400 70.283, 137.500 76.514" stroke="none" fill="#0fc4fc" fill-rule="evenodd"/><path d="M 448.137 22.220 C 440.443 24.800, 432.015 32.005, 429.584 38.081 C 426.936 44.699, 426.514 52.811, 428.466 59.569 C 429.797 64.177, 431.247 66.533, 434.962 70.131 C 440.638 75.625, 446.609 78.072, 462.625 81.464 C 480.098 85.165, 485.839 89.268, 486.746 98.704 C 487.338 104.864, 485.283 109.936, 480.856 113.244 C 475.951 116.910, 470.974 118.179, 461.722 118.125 C 452.346 118.069, 444.936 116.351, 435.376 112.016 C 431.717 110.357, 428.561 109, 428.362 109 C 428.163 109, 428 112.580, 428 116.956 L 428 124.913 436.047 127.455 C 464.320 136.387, 491.758 130.952, 500.099 114.767 C 504.433 106.359, 504.130 91.315, 499.467 83.355 C 494.344 74.609, 486.902 70.628, 467.973 66.506 C 449.154 62.409, 445.785 60.630, 443.953 53.826 C 438.828 34.793, 462.828 26.965, 491.189 38.420 L 497 40.768 497 32.912 L 497 25.056 491.750 23.540 C 476.878 19.245, 458.653 18.693, 448.137 22.220 M 216 75.487 L 216 130 251 130 L 286 130 286 123 L 286 116 259 116 L 232 116 232 97.500 L 232 79 257 79 L 282 79 282 72 L 282 65 257 65 L 232 65 232 50 L 232 35 258.546 35 L 285.091 35 284.796 28.250 L 284.500 21.500 250.250 21.237 L 216 20.974 216 75.487 M 524 75.500 L 524 130 532 130 L 540 130 540 107.500 L 540 85 549.750 85.006 C 562.288 85.013, 565.933 86.076, 570.413 91.035 C 572.398 93.233, 577.949 102.899, 582.748 112.516 L 591.473 130 599.737 130 C 605.150 130, 608 129.615, 608 128.884 C 608 128.271, 603.636 119.218, 598.303 108.767 C 591.037 94.529, 587.322 88.408, 583.486 84.351 L 578.366 78.937 581.613 76.930 C 590.393 71.504, 594.655 61.842, 593.720 49.482 C 593.072 40.917, 590.167 34.232, 585.196 29.867 C 577.197 22.844, 568.423 21.080, 541.250 21.031 L 524 21 524 75.500 M 623.395 22.414 C 623.096 23.192, 623.026 41.079, 623.238 62.164 C 623.669 104.907, 623.920 106.750, 630.672 116.725 C 637.525 126.849, 647.923 131.366, 664.500 131.419 C 684.905 131.486, 696.640 124.431, 703.213 108.145 C 705.434 102.642, 705.499 101.479, 705.797 61.750 L 706.104 21 698.114 21 L 690.125 21 689.812 60.750 C 689.505 99.911, 689.465 100.576, 687.169 105.652 C 682.929 115.023, 677.445 118.078, 664.813 118.106 C 651.668 118.134, 644.449 113.387, 640.926 102.398 C 640.049 99.662, 639.551 86.948, 639.257 59.750 L 638.837 21 631.387 21 C 625.889 21, 623.795 21.370, 623.395 22.414 M 308 76.013 L 308 130.027 341.750 129.763 L 375.500 129.500 375.500 123 L 375.500 116.500 349.750 116.233 L 324 115.966 324 68.983 L 324 22 316 22 L 308 22 308 76.013 M 389 76 L 389 130 397 130 L 405 130 405 76 L 405 22 397 22 L 389 22 389 76 M 732 76 L 732 130 739.489 130 L 746.979 130 747.239 86.545 L 747.500 43.090 770.369 86.545 L 793.238 130 803.619 130 L 814 130 814 76 L 814 22 806.011 22 L 798.021 22 797.761 64.419 L 797.500 106.837 775.156 64.419 L 752.813 22 742.406 22 L 732 22 732 76 M 111.333 30.944 C 60.641 31.250, 18.936 31.731, 18.654 32.012 C 18.373 32.294, 40.538 45.100, 67.911 60.470 L 117.680 88.416 120.019 113.708 C 121.306 127.619, 122.677 139, 123.066 139 C 123.455 139, 133.607 126.738, 145.627 111.750 C 157.646 96.762, 176.887 72.800, 188.384 58.500 C 199.881 44.200, 209.728 31.938, 210.266 31.250 C 211.017 30.291, 210.343 30.045, 207.372 30.194 C 205.243 30.301, 162.025 30.639, 111.333 30.944 M 73.540 32.750 C 47.162 32.898, 25.243 33.357, 24.831 33.769 C 24.419 34.181, 45.240 46.388, 71.100 60.897 C 113.458 84.661, 118.334 87.155, 120.309 86.066 C 121.514 85.401, 130.150 80.041, 139.500 74.155 C 159.068 61.836, 158.030 63.770, 152.988 49.037 C 151.395 44.383, 150.238 40.429, 150.416 40.250 C 150.925 39.742, 155.782 53.322, 156.543 57.379 C 156.919 59.383, 157.625 61.268, 158.111 61.569 C 158.598 61.869, 169.183 55.775, 181.633 48.027 C 194.084 40.278, 204.434 34.100, 204.632 34.299 C 204.831 34.497, 194.649 41.072, 182.006 48.910 C 169.364 56.747, 158.842 63.461, 158.626 63.830 C 158.409 64.198, 158.618 67.200, 159.090 70.500 C 159.562 73.800, 160.297 79.598, 160.724 83.385 L 161.500 90.269 169.500 80.035 C 173.900 74.406, 177.972 69.283, 178.549 68.651 C 183.221 63.527, 204.974 35.972, 205.205 34.884 C 205.367 34.123, 205.950 33.169, 206.500 32.765 C 207.050 32.361, 193.876 32.024, 177.224 32.015 L 146.949 32 148.474 34.950 C 149.313 36.573, 149.980 38.261, 149.956 38.700 C 149.931 39.140, 149.021 37.813, 147.932 35.750 L 145.952 32 133.726 32.240 C 127.002 32.372, 99.918 32.602, 73.540 32.750 M 540 52.979 L 540 71.155 553.431 70.827 C 568.013 70.472, 569.769 69.869, 574.438 63.615 C 577.424 59.615, 577.424 46.385, 574.438 42.385 C 569.776 36.140, 568.003 35.530, 553.428 35.152 L 540 34.804 540 52.979 M 137.500 76.514 C 125.947 83.785, 119.416 88.498, 119.266 89.671 C 119.137 90.677, 120.041 101.796, 121.275 114.379 L 123.518 137.259 141.897 114.464 L 160.276 91.669 159.131 79.228 C 158.006 67.005, 157.570 64.908, 156.191 65.093 C 155.811 65.144, 147.400 70.283, 137.500 76.514" stroke="none" fill="#fbfbfc" fill-rule="evenodd"/></svg>