<?xml version="1.0" encoding="utf-8"?>
<!-- Generator: Adobe Illustrator 27.7.0, SVG Export Plug-In . SVG Version: 6.00 Build 0)  -->
<svg version="1.1" id="Layer_1" xmlns="http://www.w3.org/2000/svg" xmlns:xlink="http://www.w3.org/1999/xlink" x="0px" y="0px"
	 viewBox="0 0 150 150" style="enable-background:new 0 0 150 150;" xml:space="preserve">
<style type="text/css">
	.st0{fill:url(#SVGID_1_);}
	.st1{fill:#333333;}
	.st2{clip-path:url(#SVGID_00000071526025158286356910000004547177196532087949_);fill:#7F7F7F;}
	.st3{clip-path:url(#SVGID_00000065771566154512051580000003866023683863982766_);fill:#231F20;}
	.st4{clip-path:url(#SVGID_00000008107249688364933530000010486715321806698685_);}
	.st5{clip-path:url(#SVGID_00000144313042808502486600000010671111672349504647_);}
	.st6{clip-path:url(#SVGID_00000164490941619017526670000010907263203694619316_);}
	.st7{clip-path:url(#SVGID_00000127727617544692769490000009028549644768535224_);}
	.st8{clip-path:url(#SVGID_00000137851771299090207270000016457284037276862112_);}
	.st9{clip-path:url(#SVGID_00000124852412933022523550000008212406180968874646_);}
	.st10{fill:#4D4D4E;}
	.st11{fill:url(#SVGID_00000099641444069634350210000010201647751330276226_);}
	.st12{fill:url(#SVGID_00000096773113335909503980000006647071705087406513_);}
	.st13{fill:url(#SVGID_00000090266488981231788710000017769996161179073957_);}
	.st14{fill:url(#SVGID_00000159437064992546361650000005850967573809370007_);}
	.st15{fill:url(#SVGID_00000129183860053771408200000013808571497699015567_);}
	.st16{fill:url(#SVGID_00000054261332090777079740000005602100116250154143_);}
	.st17{clip-path:url(#SVGID_00000047062015120546855090000007597215010822755245_);fill:#666766;}
	.st18{clip-path:url(#SVGID_00000151545904121412645100000007457727123935971755_);fill:#E5E5E5;}
	.st19{clip-path:url(#SVGID_00000088091282566091369950000015798260479539271596_);fill:#7F7F7F;}
</style>
<g id="Group_Fan_Shroud">
	
		<linearGradient id="SVGID_1_" gradientUnits="userSpaceOnUse" x1="481.4165" y1="-543.7671" x2="593.9165" y2="-543.7671" gradientTransform="matrix(0.5689 0 0 -0.5689 -230.5689 -234.0978)">
		<stop  offset="0.01" style="stop-color:#4D4D4E"/>
		<stop  offset="0.51" style="stop-color:#F5F5F5"/>
		<stop  offset="1" style="stop-color:#4D4D4E"/>
	</linearGradient>
	<path class="st0" d="M43.3,43.25h64v64h-64V43.25z"/>
</g>
<g id="Group_Vent">
	<path class="st1" d="M103.18,75.31c0,15.51-12.51,28.08-27.95,28.08S47.29,90.82,47.29,75.31c0-15.51,12.51-28.08,27.95-28.08
		S103.18,59.8,103.18,75.31z"/>
</g>
<g id="Group_Back">
	<g>
		<g>
			<defs>
				<rect id="SVGID_00000090254199146596315620000006780205034989959354_" x="43.3" y="43.25" width="64" height="64"/>
			</defs>
			<clipPath id="SVGID_00000048493729122525745730000009155666325122193322_">
				<use xlink:href="#SVGID_00000090254199146596315620000006780205034989959354_"  style="overflow:visible;"/>
			</clipPath>
			<path style="clip-path:url(#SVGID_00000048493729122525745730000009155666325122193322_);fill:#7F7F7F;" d="M105.04,75
				c0,16.32-13.23,29.56-29.56,29.56S45.93,91.32,45.93,75s13.23-29.56,29.56-29.56C91.81,45.44,105.04,58.67,105.04,75"/>
		</g>
		<g>
			<defs>
				<rect id="SVGID_00000031167335105219167530000011333533612104862345_" x="43.3" y="43.25" width="64" height="64"/>
			</defs>
			<clipPath id="SVGID_00000060020491322563995050000006680348609517179310_">
				<use xlink:href="#SVGID_00000031167335105219167530000011333533612104862345_"  style="overflow:visible;"/>
			</clipPath>
			<path style="clip-path:url(#SVGID_00000060020491322563995050000006680348609517179310_);fill:#231F20;" d="M103.27,75.21
				c0,15.46-12.53,28-28,28s-28-12.53-28-28s12.53-28,28-28S103.27,59.75,103.27,75.21"/>
		</g>
		<g>
			<defs>
				<rect id="SVGID_00000131331148187659597450000006766733674674813825_" x="43.3" y="43.25" width="64" height="64"/>
			</defs>
			<clipPath id="SVGID_00000034799088891462437540000015683906519888428204_">
				<use xlink:href="#SVGID_00000131331148187659597450000006766733674674813825_"  style="overflow:visible;"/>
			</clipPath>
			
				<rect x="47.28" y="105.58" style="clip-path:url(#SVGID_00000034799088891462437540000015683906519888428204_);" width="3.97" height="1.67"/>
		</g>
		<g>
			<defs>
				<rect id="SVGID_00000105392081821409020170000008029088897512983708_" x="43.3" y="43.25" width="64" height="64"/>
			</defs>
			<clipPath id="SVGID_00000057862968669192955030000013198321406694646680_">
				<use xlink:href="#SVGID_00000105392081821409020170000008029088897512983708_"  style="overflow:visible;"/>
			</clipPath>
			
				<rect x="52.59" y="105.58" style="clip-path:url(#SVGID_00000057862968669192955030000013198321406694646680_);" width="3.97" height="1.67"/>
		</g>
		<g>
			<defs>
				<rect id="SVGID_00000054259702766893296650000005330847441462283416_" x="43.3" y="43.25" width="64" height="64"/>
			</defs>
			<clipPath id="SVGID_00000091724791426820257500000003408154689264018616_">
				<use xlink:href="#SVGID_00000054259702766893296650000005330847441462283416_"  style="overflow:visible;"/>
			</clipPath>
			
				<rect x="61.95" y="105.58" style="clip-path:url(#SVGID_00000091724791426820257500000003408154689264018616_);" width="3.97" height="1.67"/>
		</g>
		<g>
			<defs>
				<rect id="SVGID_00000003071003051384434630000006764004192918897065_" x="43.3" y="43.25" width="64" height="64"/>
			</defs>
			<clipPath id="SVGID_00000164483260665488029220000007701225034230151557_">
				<use xlink:href="#SVGID_00000003071003051384434630000006764004192918897065_"  style="overflow:visible;"/>
			</clipPath>
			
				<rect x="99.3" y="105.58" style="clip-path:url(#SVGID_00000164483260665488029220000007701225034230151557_);" width="3.97" height="1.67"/>
		</g>
		<g>
			<defs>
				<rect id="SVGID_00000062901401210487812180000009728130272050337152_" x="43.3" y="43.25" width="64" height="64"/>
			</defs>
			<clipPath id="SVGID_00000094595964950561893790000010723977429858518950_">
				<use xlink:href="#SVGID_00000062901401210487812180000009728130272050337152_"  style="overflow:visible;"/>
			</clipPath>
			
				<rect x="93.98" y="105.58" style="clip-path:url(#SVGID_00000094595964950561893790000010723977429858518950_);" width="3.97" height="1.67"/>
		</g>
		<g>
			<defs>
				<rect id="SVGID_00000177468623965150034200000009412979402421179567_" x="43.3" y="43.25" width="64" height="64"/>
			</defs>
			<clipPath id="SVGID_00000000222638858527072090000017808018919641451935_">
				<use xlink:href="#SVGID_00000177468623965150034200000009412979402421179567_"  style="overflow:visible;"/>
			</clipPath>
			
				<rect x="84.62" y="105.58" style="clip-path:url(#SVGID_00000000222638858527072090000017808018919641451935_);" width="3.97" height="1.67"/>
		</g>
	</g>
</g>
<g id="Group_Impeller_Blades">
	<path class="st10" d="M79.76,101.86V79.7h-8.97v22.17H79.76z"/>
	<path class="st10" d="M100.64,84.69L81.29,73.55l-4.36,7.69l19.22,11.15L100.64,84.69z"/>
	
		<linearGradient id="SVGID_00000175306008772411385690000013048800046351357352_" gradientUnits="userSpaceOnUse" x1="542.9532" y1="-549.5063" x2="576.7684" y2="-569.8245" gradientTransform="matrix(0.5689 0 0 -0.5689 -230.5689 -234.0978)">
		<stop  offset="0" style="stop-color:#5C5E60"/>
		<stop  offset="0.5" style="stop-color:#ECECED"/>
		<stop  offset="0.58" style="stop-color:#DAD9DB"/>
		<stop  offset="0.76" style="stop-color:#A8A9AC"/>
		<stop  offset="1" style="stop-color:#5C5E60"/>
	</linearGradient>
	<path style="fill:url(#SVGID_00000175306008772411385690000013048800046351357352_);" d="M100.64,84.69h-2.31l-2.18-0.26
		l-2.18-0.45l-2.05-0.7l-1.99-0.96l-1.92-1.09l-1.73-1.35l-1.6-1.47l-1.41-1.73L82,74.89l-0.39-0.7l-0.32-0.64L81.04,74l-1.09,1.99
		l-1.09,1.86l-1.09,1.92l-0.58,0.96l-0.26,0.51l0.32,0.64l1.15,1.92l1.41,1.73l1.47,1.6l1.73,1.41l1.86,1.15l1.92,1.02l2.05,0.77
		L90.97,92l2.18,0.32l0.77,0.06h0.7h0.77h0.77l1.09-1.92l1.15-1.92l1.09-1.92l0.83-1.47L100.64,84.69z"/>
	<path class="st10" d="M96.16,58.04L76.94,69.19l4.36,7.69l19.35-11.15L96.16,58.04z"/>
	
		<linearGradient id="SVGID_00000109713099375216645340000017385352747576778631_" gradientUnits="userSpaceOnUse" x1="545.0474" y1="-541.659" x2="580.0746" y2="-523.0346" gradientTransform="matrix(0.5689 0 0 -0.5689 -230.5689 -234.0978)">
		<stop  offset="0" style="stop-color:#5C5E60"/>
		<stop  offset="0.5" style="stop-color:#ECECED"/>
		<stop  offset="0.58" style="stop-color:#DAD9DB"/>
		<stop  offset="0.76" style="stop-color:#A8A9AC"/>
		<stop  offset="1" style="stop-color:#5C5E60"/>
	</linearGradient>
	<path style="fill:url(#SVGID_00000109713099375216645340000017385352747576778631_);" d="M96.16,58.04L95,60.03l-1.28,1.79
		l-1.54,1.6l-1.6,1.47l-1.79,1.22l-1.92,1.09l-1.99,0.83l-2.11,0.64l-2.11,0.45l-2.24,0.13h-0.7l-0.77-0.06l0.26,0.51l1.09,1.86
		l1.09,1.99l1.09,1.86l0.83,1.47H82h0.77l2.24-0.13l2.18-0.38l2.11-0.64l2.05-0.83l1.92-1.09l1.79-1.28l1.6-1.41l1.54-1.67
		l1.28-1.79l0.77-1.22l0.38-0.7l-0.32-0.45l-1.09-1.92l-1.15-1.92l-1.09-1.92l-0.58-0.96L96.16,58.04z"/>
	<path class="st10" d="M70.79,48.56v22.17h8.97V48.56H70.79z"/>
	
		<linearGradient id="SVGID_00000103973823342339927920000015034376308596401335_" gradientUnits="userSpaceOnUse" x1="540.482" y1="-535.8281" x2="540.482" y2="-496.8641" gradientTransform="matrix(0.5689 0 0 -0.5689 -230.5689 -234.0978)">
		<stop  offset="0" style="stop-color:#5C5E60"/>
		<stop  offset="0.5" style="stop-color:#ECECED"/>
		<stop  offset="0.58" style="stop-color:#DAD9DB"/>
		<stop  offset="0.76" style="stop-color:#A8A9AC"/>
		<stop  offset="1" style="stop-color:#5C5E60"/>
	</linearGradient>
	<path style="fill:url(#SVGID_00000103973823342339927920000015034376308596401335_);" d="M70.79,48.56l1.15,1.99l0.9,1.99
		l0.64,2.11l0.45,2.11l0.19,2.18l-0.06,2.18L73.8,63.3l-0.51,2.11l-0.77,2.05l-0.96,1.99l-0.38,0.64l-0.38,0.64h0.58h8.39l1.15-1.92
		l0.83-2.05l0.64-2.05l0.45-2.18l0.13-1.41l0.06-0.7v-0.77l-0.13-2.18l-0.32-2.11L82,53.24l-0.83-2.05l-1.03-1.99l-0.38-0.64h-0.58
		H70.79z"/>
	<path class="st10" d="M49.9,65.73l19.35,11.15l4.36-7.69L54.39,58.04L49.9,65.73z"/>
	
		<linearGradient id="SVGID_00000148629404330043574730000010541094888786138790_" gradientUnits="userSpaceOnUse" x1="498.4547" y1="-517.5977" x2="532.2673" y2="-537.9143" gradientTransform="matrix(0.5689 0 0 -0.5689 -230.5689 -234.0978)">
		<stop  offset="0" style="stop-color:#5C5E60"/>
		<stop  offset="0.5" style="stop-color:#ECECED"/>
		<stop  offset="0.58" style="stop-color:#DAD9DB"/>
		<stop  offset="0.76" style="stop-color:#A8A9AC"/>
		<stop  offset="1" style="stop-color:#5C5E60"/>
	</linearGradient>
	<path style="fill:url(#SVGID_00000148629404330043574730000010541094888786138790_);" d="M49.9,65.73h2.31l2.18,0.26l2.18,0.45
		l2.05,0.7l1.99,0.96l1.92,1.09l1.73,1.35l1.6,1.47l1.41,1.73l1.28,1.79l0.38,0.7l0.32,0.64l0.26-0.45l1.09-1.99l1.09-1.86
		l1.09-1.92l0.58-0.96l0.26-0.51l-0.32-0.64l-1.15-1.92l-1.41-1.73l-1.47-1.6l-1.73-1.41l-1.86-1.15l-1.92-1.03l-2.05-0.77
		l-2.11-0.51l-2.18-0.32l-0.77-0.06h-0.7h-0.77h-0.77l-1.09,1.92l-1.15,1.92l-1.09,1.92l-0.83,1.47L49.9,65.73z"/>
	<path class="st10" d="M54.39,92.38l19.22-11.15l-4.36-7.69L49.9,84.69L54.39,92.38z"/>
	
		<linearGradient id="SVGID_00000115493865658867431860000017619409266103088790_" gradientUnits="userSpaceOnUse" x1="495.1472" y1="-564.3854" x2="530.1718" y2="-545.7627" gradientTransform="matrix(0.5689 0 0 -0.5689 -230.5689 -234.0978)">
		<stop  offset="0" style="stop-color:#5C5E60"/>
		<stop  offset="0.5" style="stop-color:#ECECED"/>
		<stop  offset="0.58" style="stop-color:#DAD9DB"/>
		<stop  offset="0.76" style="stop-color:#A8A9AC"/>
		<stop  offset="1" style="stop-color:#5C5E60"/>
	</linearGradient>
	<path style="fill:url(#SVGID_00000115493865658867431860000017619409266103088790_);" d="M54.39,92.38l1.15-1.99l1.28-1.79
		l1.54-1.6l1.6-1.47l1.79-1.22l1.92-1.09l1.99-0.83l2.11-0.64l2.11-0.45l2.24-0.13h0.7l0.77,0.06l-0.26-0.51l-1.09-1.86l-1.09-1.99
		l-1.09-1.86l-0.83-1.47h-0.7h-0.77l-2.24,0.13l-2.18,0.38l-2.11,0.64l-2.05,0.83l-1.92,1.09l-1.79,1.28l-1.6,1.41l-1.54,1.67
		l-1.28,1.79l-0.77,1.22l-0.38,0.7l0.32,0.45l1.09,1.92l1.15,1.92l1.09,1.92l0.58,0.96L54.39,92.38z"/>
	
		<linearGradient id="SVGID_00000080917686715807024150000017628166722705138832_" gradientUnits="userSpaceOnUse" x1="534.739" y1="-590.5611" x2="534.739" y2="-551.5931" gradientTransform="matrix(0.5689 0 0 -0.5689 -230.5689 -234.0978)">
		<stop  offset="0" style="stop-color:#5C5E60"/>
		<stop  offset="0.5" style="stop-color:#ECECED"/>
		<stop  offset="0.58" style="stop-color:#DAD9DB"/>
		<stop  offset="0.76" style="stop-color:#A8A9AC"/>
		<stop  offset="1" style="stop-color:#5C5E60"/>
	</linearGradient>
	<path style="fill:url(#SVGID_00000080917686715807024150000017628166722705138832_);" d="M79.76,101.86l-1.15-1.99l-0.9-1.99
		L77,95.78l-0.38-2.11l-0.19-2.18v-2.18l0.26-2.18l0.51-2.11l0.77-2.05l1.02-1.99l0.38-0.64l0.39-0.64h-0.58h-8.39l-1.15,1.92
		l-0.83,2.05l-0.64,2.05l-0.45,2.18l-0.13,1.41l-0.06,0.7v0.77l0.13,2.18l0.32,2.11l0.58,2.11l0.83,2.05l1.03,1.99l0.38,0.64h0.58
		L79.76,101.86C79.76,101.87,79.76,101.86,79.76,101.86z"/>
</g>
<g id="Group_Automation_Trasnsmission_Fittings">
	<path d="M47.28,105.58h3.97v1.22h-3.97V105.58z"/>
	<path d="M52.59,105.58h3.97v1.22h-3.97V105.58z"/>
	<path d="M61.95,105.58h3.97v1.22h-3.97V105.58z"/>
	<path d="M103.27,106.8H99.3v-1.22h3.97V106.8z"/>
	<path d="M97.95,106.8h-3.97v-1.22h3.97V106.8z"/>
	<path d="M88.6,106.8h-3.97v-1.22h3.97V106.8z"/>
</g>
<g id="Group_Axial">
	<g>
		<g>
			<defs>
				<rect id="SVGID_00000062904342638484614830000007269646779428683961_" x="43.3" y="43.25" width="64" height="64"/>
			</defs>
			<clipPath id="SVGID_00000029752642813683636070000000715242260637612178_">
				<use xlink:href="#SVGID_00000062904342638484614830000007269646779428683961_"  style="overflow:visible;"/>
			</clipPath>
			<path style="clip-path:url(#SVGID_00000029752642813683636070000000715242260637612178_);fill:#666766;" d="M71.18,68.61
				c3.67-2.27,8.49-1.13,10.76,2.54c2.27,3.67,1.13,8.49-2.54,10.76c-3.67,2.27-8.49,1.13-10.76-2.54
				C66.37,75.69,67.51,70.88,71.18,68.61"/>
		</g>
		<g>
			<defs>
				<rect id="SVGID_00000050661933219317081710000011112831559716584345_" x="43.3" y="43.25" width="64" height="64"/>
			</defs>
			<clipPath id="SVGID_00000150806140059470298460000006990172897491487880_">
				<use xlink:href="#SVGID_00000050661933219317081710000011112831559716584345_"  style="overflow:visible;"/>
			</clipPath>
			<path style="clip-path:url(#SVGID_00000150806140059470298460000006990172897491487880_);fill:#E5E5E5;" d="M71.79,69.59
				c3.13-1.93,7.24-0.96,9.17,2.17c1.93,3.13,0.96,7.24-2.17,9.17c-3.13,1.93-7.24,0.96-9.17-2.17
				C67.68,75.63,68.65,71.53,71.79,69.59"/>
		</g>
		<g>
			<defs>
				<rect id="SVGID_00000040553995126811106980000005539842108387371962_" x="43.3" y="43.25" width="64" height="64"/>
			</defs>
			<clipPath id="SVGID_00000091013940126174880050000015651137009059119002_">
				<use xlink:href="#SVGID_00000040553995126811106980000005539842108387371962_"  style="overflow:visible;"/>
			</clipPath>
			<path style="clip-path:url(#SVGID_00000091013940126174880050000015651137009059119002_);fill:#7F7F7F;" d="M74.14,73.41
				c1.02-0.63,2.37-0.31,3,0.71c0.63,1.02,0.32,2.36-0.71,3c-1.02,0.63-2.37,0.32-3-0.71C72.8,75.38,73.12,74.04,74.14,73.41"/>
		</g>
	</g>
</g>
</svg>
